<mxfile host="app.diagrams.net" modified="2022-03-14T16:28:43.638Z" agent="5.0 (Windows NT 10.0; Win64; x64) AppleWebKit/537.36 (KHTML, like Gecko) Chrome/99.0.4844.51 Safari/537.36" etag="LVfDfLdUGaiiIlEmRW6O" version="17.1.2" type="github">
  <diagram id="ZLWUFuUGS1sP8JC1AKqk" name="Page-1">
    <mxGraphModel dx="1422" dy="772" grid="1" gridSize="10" guides="1" tooltips="1" connect="1" arrows="1" fold="1" page="1" pageScale="1" pageWidth="850" pageHeight="1100" math="0" shadow="0">
      <root>
        <mxCell id="0" />
        <mxCell id="1" parent="0" />
        <mxCell id="Q6O85ANfxA3pUZdL53Ft-1" value="Agricultural" style="rounded=0;whiteSpace=wrap;html=1;fillColor=#f5f5f5;fontColor=#333333;strokeColor=#666666;" parent="1" vertex="1">
          <mxGeometry x="365" y="370" width="120" height="60" as="geometry" />
        </mxCell>
        <mxCell id="j0AuXsLVdMmbC5d73Wlw-2" style="edgeStyle=orthogonalEdgeStyle;rounded=0;orthogonalLoop=1;jettySize=auto;html=1;exitX=0.5;exitY=0;exitDx=0;exitDy=0;entryX=1;entryY=0.5;entryDx=0;entryDy=0;" edge="1" parent="1" source="Q6O85ANfxA3pUZdL53Ft-2" target="Q6O85ANfxA3pUZdL53Ft-1">
          <mxGeometry relative="1" as="geometry" />
        </mxCell>
        <mxCell id="Q6O85ANfxA3pUZdL53Ft-2" value="Aqua-marine" style="rounded=0;whiteSpace=wrap;html=1;fillColor=#dae8fc;strokeColor=#6c8ebf;" parent="1" vertex="1">
          <mxGeometry x="610" y="470" width="120" height="60" as="geometry" />
        </mxCell>
        <mxCell id="j0AuXsLVdMmbC5d73Wlw-3" value="" style="edgeStyle=orthogonalEdgeStyle;rounded=0;orthogonalLoop=1;jettySize=auto;html=1;" edge="1" parent="1" source="Q6O85ANfxA3pUZdL53Ft-3" target="Q6O85ANfxA3pUZdL53Ft-1">
          <mxGeometry relative="1" as="geometry" />
        </mxCell>
        <mxCell id="Q6O85ANfxA3pUZdL53Ft-3" value="Livestock" style="rounded=0;whiteSpace=wrap;html=1;fillColor=#ffe6cc;strokeColor=#d79b00;" parent="1" vertex="1">
          <mxGeometry x="365" y="470" width="120" height="60" as="geometry" />
        </mxCell>
        <mxCell id="j0AuXsLVdMmbC5d73Wlw-1" style="edgeStyle=orthogonalEdgeStyle;rounded=0;orthogonalLoop=1;jettySize=auto;html=1;exitX=0.5;exitY=0;exitDx=0;exitDy=0;entryX=0;entryY=0.5;entryDx=0;entryDy=0;" edge="1" parent="1" source="Q6O85ANfxA3pUZdL53Ft-4" target="Q6O85ANfxA3pUZdL53Ft-1">
          <mxGeometry relative="1" as="geometry" />
        </mxCell>
        <mxCell id="Q6O85ANfxA3pUZdL53Ft-4" value="Crop" style="rounded=0;whiteSpace=wrap;html=1;fillColor=#d5e8d4;strokeColor=#82b366;" parent="1" vertex="1">
          <mxGeometry x="120" y="470" width="120" height="60" as="geometry" />
        </mxCell>
        <mxCell id="j0AuXsLVdMmbC5d73Wlw-15" style="edgeStyle=orthogonalEdgeStyle;rounded=0;orthogonalLoop=1;jettySize=auto;html=1;exitX=0.5;exitY=0;exitDx=0;exitDy=0;entryX=0.5;entryY=1;entryDx=0;entryDy=0;" edge="1" parent="1" source="Q6O85ANfxA3pUZdL53Ft-5" target="Q6O85ANfxA3pUZdL53Ft-4">
          <mxGeometry relative="1" as="geometry" />
        </mxCell>
        <mxCell id="Q6O85ANfxA3pUZdL53Ft-5" value="Rice" style="ellipse;whiteSpace=wrap;html=1;aspect=fixed;fillColor=#d5e8d4;strokeColor=#82b366;" parent="1" vertex="1">
          <mxGeometry x="40" y="590" width="80" height="80" as="geometry" />
        </mxCell>
        <mxCell id="j0AuXsLVdMmbC5d73Wlw-5" style="edgeStyle=orthogonalEdgeStyle;rounded=0;orthogonalLoop=1;jettySize=auto;html=1;exitX=0.5;exitY=0;exitDx=0;exitDy=0;entryX=0.5;entryY=1;entryDx=0;entryDy=0;" edge="1" parent="1" source="Q6O85ANfxA3pUZdL53Ft-6" target="Q6O85ANfxA3pUZdL53Ft-4">
          <mxGeometry relative="1" as="geometry" />
        </mxCell>
        <mxCell id="Q6O85ANfxA3pUZdL53Ft-6" value="Corn" style="ellipse;whiteSpace=wrap;html=1;aspect=fixed;fillColor=#d5e8d4;strokeColor=#82b366;" parent="1" vertex="1">
          <mxGeometry x="140" y="590" width="80" height="80" as="geometry" />
        </mxCell>
        <mxCell id="j0AuXsLVdMmbC5d73Wlw-16" style="edgeStyle=orthogonalEdgeStyle;rounded=0;orthogonalLoop=1;jettySize=auto;html=1;exitX=0.5;exitY=0;exitDx=0;exitDy=0;entryX=0.5;entryY=1;entryDx=0;entryDy=0;" edge="1" parent="1" source="Q6O85ANfxA3pUZdL53Ft-7" target="Q6O85ANfxA3pUZdL53Ft-4">
          <mxGeometry relative="1" as="geometry" />
        </mxCell>
        <mxCell id="Q6O85ANfxA3pUZdL53Ft-7" value="Coconut" style="ellipse;whiteSpace=wrap;html=1;aspect=fixed;fillColor=#d5e8d4;strokeColor=#82b366;" parent="1" vertex="1">
          <mxGeometry x="240" y="590" width="80" height="80" as="geometry" />
        </mxCell>
        <mxCell id="j0AuXsLVdMmbC5d73Wlw-8" style="edgeStyle=orthogonalEdgeStyle;rounded=0;orthogonalLoop=1;jettySize=auto;html=1;exitX=0.5;exitY=0;exitDx=0;exitDy=0;entryX=0.5;entryY=1;entryDx=0;entryDy=0;" edge="1" parent="1" source="Q6O85ANfxA3pUZdL53Ft-9" target="Q6O85ANfxA3pUZdL53Ft-3">
          <mxGeometry relative="1" as="geometry" />
        </mxCell>
        <mxCell id="Q6O85ANfxA3pUZdL53Ft-9" value="Chicken" style="ellipse;whiteSpace=wrap;html=1;aspect=fixed;fillColor=#ffe6cc;strokeColor=#d79b00;" parent="1" vertex="1">
          <mxGeometry x="335" y="590" width="80" height="80" as="geometry" />
        </mxCell>
        <mxCell id="j0AuXsLVdMmbC5d73Wlw-10" style="edgeStyle=orthogonalEdgeStyle;rounded=0;orthogonalLoop=1;jettySize=auto;html=1;exitX=0.5;exitY=0;exitDx=0;exitDy=0;" edge="1" parent="1" source="Q6O85ANfxA3pUZdL53Ft-10" target="Q6O85ANfxA3pUZdL53Ft-3">
          <mxGeometry relative="1" as="geometry" />
        </mxCell>
        <mxCell id="Q6O85ANfxA3pUZdL53Ft-10" value="Swine" style="ellipse;whiteSpace=wrap;html=1;aspect=fixed;fillColor=#ffe6cc;strokeColor=#d79b00;" parent="1" vertex="1">
          <mxGeometry x="435" y="590" width="80" height="80" as="geometry" />
        </mxCell>
        <mxCell id="j0AuXsLVdMmbC5d73Wlw-11" style="edgeStyle=orthogonalEdgeStyle;rounded=0;orthogonalLoop=1;jettySize=auto;html=1;exitX=0.5;exitY=0;exitDx=0;exitDy=0;entryX=0.5;entryY=1;entryDx=0;entryDy=0;" edge="1" parent="1" source="Q6O85ANfxA3pUZdL53Ft-11" target="Q6O85ANfxA3pUZdL53Ft-2">
          <mxGeometry relative="1" as="geometry" />
        </mxCell>
        <mxCell id="Q6O85ANfxA3pUZdL53Ft-11" value="Fresh water fish" style="ellipse;whiteSpace=wrap;html=1;aspect=fixed;fillColor=#dae8fc;strokeColor=#6c8ebf;" parent="1" vertex="1">
          <mxGeometry x="530" y="590" width="80" height="80" as="geometry" />
        </mxCell>
        <mxCell id="j0AuXsLVdMmbC5d73Wlw-13" style="edgeStyle=orthogonalEdgeStyle;rounded=0;orthogonalLoop=1;jettySize=auto;html=1;exitX=0.5;exitY=0;exitDx=0;exitDy=0;" edge="1" parent="1" source="Q6O85ANfxA3pUZdL53Ft-12">
          <mxGeometry relative="1" as="geometry">
            <mxPoint x="670" y="530" as="targetPoint" />
          </mxGeometry>
        </mxCell>
        <mxCell id="Q6O85ANfxA3pUZdL53Ft-12" value="Salt water fish" style="ellipse;whiteSpace=wrap;html=1;aspect=fixed;fillColor=#dae8fc;strokeColor=#6c8ebf;" parent="1" vertex="1">
          <mxGeometry x="630" y="590" width="80" height="80" as="geometry" />
        </mxCell>
        <mxCell id="j0AuXsLVdMmbC5d73Wlw-14" style="edgeStyle=orthogonalEdgeStyle;rounded=0;orthogonalLoop=1;jettySize=auto;html=1;exitX=0.5;exitY=0;exitDx=0;exitDy=0;" edge="1" parent="1" source="Q6O85ANfxA3pUZdL53Ft-13">
          <mxGeometry relative="1" as="geometry">
            <mxPoint x="670" y="530" as="targetPoint" />
          </mxGeometry>
        </mxCell>
        <mxCell id="Q6O85ANfxA3pUZdL53Ft-13" value="Non-fish" style="ellipse;whiteSpace=wrap;html=1;aspect=fixed;fillColor=#dae8fc;strokeColor=#6c8ebf;" parent="1" vertex="1">
          <mxGeometry x="730" y="590" width="80" height="80" as="geometry" />
        </mxCell>
      </root>
    </mxGraphModel>
  </diagram>
</mxfile>
